<svg width="148" height="149" viewBox="0 0 148 149" fill="none" xmlns="http://www.w3.org/2000/svg">
<path d="M63.64 87.82L47.73 71.91C46.3733 70.5533 44.6467 69.875 42.55 69.875C40.4533 69.875 38.7267 70.5533 37.37 71.91C36.0133 73.2667 35.335 74.9933 35.335 77.09C35.335 79.1867 36.0133 80.9133 37.37 82.27L58.46 103.36C59.94 104.84 61.6667 105.58 63.64 105.58C65.6133 105.58 67.34 104.84 68.82 103.36L110.63 61.55C111.987 60.1933 112.665 58.4667 112.665 56.37C112.665 54.2733 111.987 52.5467 110.63 51.19C109.273 49.8333 107.547 49.155 105.45 49.155C103.353 49.155 101.627 49.8333 100.27 51.19L63.64 87.82ZM74 148.5C63.7633 148.5 54.1433 146.556 45.14 142.669C36.1367 138.781 28.305 133.51 21.645 126.855C14.985 120.195 9.71373 112.363 5.8312 103.36C1.94867 94.3567 0.00493333 84.7367 0 74.5C0 64.2633 1.94373 54.6433 5.8312 45.64C9.71867 36.6367 14.9899 28.805 21.645 22.145C28.305 15.485 36.1367 10.2137 45.14 6.3312C54.1433 2.44867 63.7633 0.504933 74 0.5C84.2367 0.5 93.8567 2.44373 102.86 6.3312C111.863 10.2187 119.695 15.4899 126.355 22.145C133.015 28.805 138.289 36.6367 142.176 45.64C146.064 54.6433 148.005 64.2633 148 74.5C148 84.7367 146.056 94.3567 142.169 103.36C138.281 112.363 133.01 120.195 126.355 126.855C119.695 133.515 111.863 138.789 102.86 142.676C93.8567 146.564 84.2367 148.505 74 148.5Z" fill="#FDD0D0" fill-opacity="0.8"/>
<path d="M63.64 87.82L47.73 71.91C46.3733 70.5533 44.6467 69.875 42.55 69.875C40.4533 69.875 38.7267 70.5533 37.37 71.91C36.0133 73.2667 35.335 74.9933 35.335 77.09C35.335 79.1867 36.0133 80.9133 37.37 82.27L58.46 103.36C59.94 104.84 61.6667 105.58 63.64 105.58C65.6133 105.58 67.34 104.84 68.82 103.36L110.63 61.55C111.987 60.1933 112.665 58.4667 112.665 56.37C112.665 54.2733 111.987 52.5467 110.63 51.19C109.273 49.8333 107.547 49.155 105.45 49.155C103.353 49.155 101.627 49.8333 100.27 51.19L63.64 87.82Z" fill="#FDD0D0" fill-opacity="0.8"/>
<path d="M73.5 12.5C38.9375 12.5 11 40.4375 11 75C11 109.563 38.9375 137.5 73.5 137.5C108.063 137.5 136 109.563 136 75C136 40.4375 108.063 12.5 73.5 12.5ZM100.375 101.875C99.7968 102.454 99.11 102.914 98.3539 103.228C97.5978 103.541 96.7873 103.703 95.9688 103.703C95.1502 103.703 94.3397 103.541 93.5836 103.228C92.8275 102.914 92.1407 102.454 91.5625 101.875L73.5 83.8125L55.4375 101.875C54.2689 103.044 52.6839 103.7 51.0312 103.7C49.3786 103.7 47.7936 103.044 46.625 101.875C45.4564 100.706 44.7999 99.1214 44.7999 97.4688C44.7999 96.6504 44.9611 95.8401 45.2742 95.0841C45.5874 94.3281 46.0464 93.6411 46.625 93.0625L64.6875 75L46.625 56.9375C45.4564 55.7689 44.7999 54.1839 44.7999 52.5312C44.7999 50.8786 45.4564 49.2936 46.625 48.125C47.7936 46.9564 49.3786 46.2999 51.0312 46.2999C52.6839 46.2999 54.2689 46.9564 55.4375 48.125L73.5 66.1875L91.5625 48.125C92.1411 47.5464 92.8281 47.0874 93.5841 46.7742C94.3401 46.4611 95.1504 46.2999 95.9688 46.2999C96.7871 46.2999 97.5974 46.4611 98.3534 46.7742C99.1094 47.0874 99.7964 47.5464 100.375 48.125C100.954 48.7036 101.413 49.3906 101.726 50.1466C102.039 50.9026 102.2 51.7129 102.2 52.5312C102.2 53.3496 102.039 54.1599 101.726 54.9159C101.413 55.6719 100.954 56.3589 100.375 56.9375L82.3125 75L100.375 93.0625C102.75 95.4375 102.75 99.4375 100.375 101.875Z" fill="#E73232"/>
<path d="M100.375 101.875C99.7968 102.454 99.11 102.914 98.3539 103.228C97.5978 103.541 96.7873 103.703 95.9688 103.703C95.1502 103.703 94.3397 103.541 93.5836 103.228C92.8275 102.914 92.1407 102.454 91.5625 101.875L73.5 83.8125L55.4375 101.875C54.2689 103.044 52.6839 103.7 51.0312 103.7C49.3786 103.7 47.7936 103.044 46.625 101.875C45.4564 100.706 44.7999 99.1214 44.7999 97.4688C44.7999 96.6504 44.9611 95.8401 45.2742 95.0841C45.5874 94.3281 46.0464 93.6411 46.625 93.0625L64.6875 75L46.625 56.9375C45.4564 55.7689 44.7999 54.1839 44.7999 52.5312C44.7999 50.8786 45.4564 49.2936 46.625 48.125C47.7936 46.9564 49.3786 46.2999 51.0312 46.2999C52.6839 46.2999 54.2689 46.9564 55.4375 48.125L73.5 66.1875L91.5625 48.125C92.1411 47.5464 92.8281 47.0874 93.5841 46.7742C94.3401 46.4611 95.1504 46.2999 95.9688 46.2999C96.7871 46.2999 97.5974 46.4611 98.3534 46.7742C99.1094 47.0874 99.7964 47.5464 100.375 48.125C100.954 48.7036 101.413 49.3906 101.726 50.1466C102.039 50.9026 102.2 51.7129 102.2 52.5312C102.2 53.3496 102.039 54.1599 101.726 54.9159C101.413 55.6719 100.954 56.3589 100.375 56.9375L82.3125 75L100.375 93.0625C102.75 95.4375 102.75 99.4375 100.375 101.875Z" fill="white"/>
</svg>
