<svg width="11" height="8" viewBox="0 0 11 8" fill="none" xmlns="http://www.w3.org/2000/svg">
<path d="M6.56821 7.78475C6.42696 7.64125 6.35916 7.46786 6.36481 7.26457C6.37046 7.06128 6.44415 6.88789 6.58587 6.74439L8.58105 4.71749L0.706262 4.71749C0.506155 4.71749 0.338301 4.64861 0.202699 4.51085C0.0670972 4.37309 -0.000468396 4.20281 2.4438e-06 4C2.4438e-06 3.79671 0.0678034 3.62619 0.203405 3.48843C0.339007 3.35067 0.506626 3.28203 0.706262 3.28251L8.58105 3.28251L6.56821 1.23767C6.42696 1.09417 6.35633 0.923647 6.35633 0.726098C6.35633 0.52855 6.42696 0.358266 6.56821 0.215246C6.70946 0.0717487 6.87732 0 7.07177 0C7.26623 0 7.43385 0.0717487 7.57463 0.215246L10.8058 3.49776C10.8764 3.56951 10.9265 3.64723 10.9562 3.73094C10.9859 3.81465 11.0005 3.90433 11 4C11 4.09566 10.9852 4.18535 10.9555 4.26906C10.9258 4.35276 10.8759 4.43049 10.8058 4.50224L7.55698 7.80269C7.42749 7.93423 7.26576 8 7.07177 8C6.87779 8 6.70994 7.92825 6.56821 7.78475Z" fill="white"/>
</svg>
