<svg width="148" height="149" viewBox="0 0 148 149" fill="none" xmlns="http://www.w3.org/2000/svg">
<path d="M63.64 87.82L47.73 71.91C46.3733 70.5533 44.6467 69.875 42.55 69.875C40.4533 69.875 38.7267 70.5533 37.37 71.91C36.0133 73.2667 35.335 74.9933 35.335 77.09C35.335 79.1867 36.0133 80.9133 37.37 82.27L58.46 103.36C59.94 104.84 61.6667 105.58 63.64 105.58C65.6133 105.58 67.34 104.84 68.82 103.36L110.63 61.55C111.987 60.1933 112.665 58.4667 112.665 56.37C112.665 54.2733 111.987 52.5467 110.63 51.19C109.273 49.8333 107.547 49.155 105.45 49.155C103.353 49.155 101.627 49.8333 100.27 51.19L63.64 87.82ZM74 148.5C63.7633 148.5 54.1433 146.556 45.14 142.669C36.1367 138.781 28.305 133.51 21.645 126.855C14.985 120.195 9.71373 112.363 5.8312 103.36C1.94867 94.3567 0.00493333 84.7367 0 74.5C0 64.2633 1.94373 54.6433 5.8312 45.64C9.71867 36.6367 14.9899 28.805 21.645 22.145C28.305 15.485 36.1367 10.2137 45.14 6.3312C54.1433 2.44867 63.7633 0.504933 74 0.5C84.2367 0.5 93.8567 2.44373 102.86 6.3312C111.863 10.2187 119.695 15.4899 126.355 22.145C133.015 28.805 138.289 36.6367 142.176 45.64C146.064 54.6433 148.005 64.2633 148 74.5C148 84.7367 146.056 94.3567 142.169 103.36C138.281 112.363 133.01 120.195 126.355 126.855C119.695 133.515 111.863 138.789 102.86 142.676C93.8567 146.564 84.2367 148.505 74 148.5Z" fill="#D0FDD0" fill-opacity="0.8"/>
<path d="M63.64 87.82L47.73 71.91C46.3733 70.5533 44.6467 69.875 42.55 69.875C40.4533 69.875 38.7267 70.5533 37.37 71.91C36.0133 73.2667 35.335 74.9933 35.335 77.09C35.335 79.1867 36.0133 80.9133 37.37 82.27L58.46 103.36C59.94 104.84 61.6667 105.58 63.64 105.58C65.6133 105.58 67.34 104.84 68.82 103.36L110.63 61.55C111.987 60.1933 112.665 58.4667 112.665 56.37C112.665 54.2733 111.987 52.5467 110.63 51.19C109.273 49.8333 107.547 49.155 105.45 49.155C103.353 49.155 101.627 49.8333 100.27 51.19L63.64 87.82Z" fill="#D0FDD0" fill-opacity="0.8"/>
<path d="M64.75 86.25L51.3125 72.8125C50.1667 71.6667 48.7083 71.0938 46.9375 71.0938C45.1667 71.0938 43.7083 71.6667 42.5625 72.8125C41.4167 73.9583 40.8438 75.4167 40.8438 77.1875C40.8438 78.9583 41.4167 80.4167 42.5625 81.5625L60.375 99.375C61.625 100.625 63.0833 101.25 64.75 101.25C66.4167 101.25 67.875 100.625 69.125 99.375L104.438 64.0625C105.583 62.9167 106.156 61.4583 106.156 59.6875C106.156 57.9167 105.583 56.4583 104.438 55.3125C103.292 54.1667 101.833 53.5938 100.063 53.5938C98.2917 53.5938 96.8333 54.1667 95.6875 55.3125L64.75 86.25ZM73.5 137.5C64.8542 137.5 56.7292 135.858 49.125 132.575C41.5208 129.292 34.9063 124.84 29.2813 119.219C23.6563 113.594 19.2042 106.979 15.925 99.375C12.6458 91.7708 11.0042 83.6458 11 75C11 66.3542 12.6417 58.2292 15.925 50.625C19.2083 43.0208 23.6604 36.4063 29.2813 30.7813C34.9063 25.1563 41.5208 20.7042 49.125 17.425C56.7292 14.1458 64.8542 12.5042 73.5 12.5C82.1458 12.5 90.2708 14.1417 97.875 17.425C105.479 20.7083 112.094 25.1604 117.719 30.7813C123.344 36.4063 127.798 43.0208 131.081 50.625C134.365 58.2292 136.004 66.3542 136 75C136 83.6458 134.358 91.7708 131.075 99.375C127.792 106.979 123.34 113.594 117.719 119.219C112.094 124.844 105.479 129.298 97.875 132.581C90.2708 135.865 82.1458 137.504 73.5 137.5Z" fill="#56EA4C"/>
<path d="M64.75 86.25L51.3125 72.8125C50.1667 71.6667 48.7083 71.0938 46.9375 71.0938C45.1667 71.0938 43.7083 71.6667 42.5625 72.8125C41.4167 73.9583 40.8438 75.4167 40.8438 77.1875C40.8438 78.9583 41.4167 80.4167 42.5625 81.5625L60.375 99.375C61.625 100.625 63.0833 101.25 64.75 101.25C66.4167 101.25 67.875 100.625 69.125 99.375L104.438 64.0625C105.583 62.9167 106.156 61.4583 106.156 59.6875C106.156 57.9167 105.583 56.4583 104.438 55.3125C103.292 54.1667 101.833 53.5938 100.063 53.5938C98.2917 53.5938 96.8333 54.1667 95.6875 55.3125L64.75 86.25Z" fill="white"/>
</svg>
