<svg width="20" height="20" viewBox="0 0 20 20" fill="none" xmlns="http://www.w3.org/2000/svg">
<rect width="20" height="20" rx="10" fill="#101010"/>
<path d="M5.07837 12.42C5.02931 12.3495 5.00241 12.2639 5.00158 12.1757V11.7672C5.00158 11.7672 5.00158 11.5229 5.22444 11.6333C5.22444 11.6333 7.96321 12.9744 8.40417 13.1845C8.82645 13.3966 9.28754 13.5032 9.75317 13.4963C10.2167 13.4971 10.675 13.3907 11.0974 13.1845L14.2787 11.6333C14.5 11.5229 14.5 11.7672 14.5 11.7672V12.1757C14.4972 12.2643 14.4699 12.35 14.4216 12.4217C14.3464 12.5321 14.2178 12.6523 13.8631 12.832C13.5809 12.9761 11.3971 14.0375 11.0943 14.188C10.6722 14.3973 10.2127 14.5037 9.74842 14.4999C9.22234 14.4999 8.7039 14.3639 8.23633 14.1033C7.66831 13.8253 5.9211 12.9778 5.6369 12.832C5.28065 12.6489 5.1805 12.5522 5.07837 12.42ZM5.6369 9.86481L8.40258 8.50872C8.67478 8.37493 8.96319 8.28361 9.25917 8.2375V10.6789C9.25917 10.8483 9.48519 10.9771 9.74842 10.9771C10.0116 10.9771 10.2001 10.8432 10.2001 10.6789V8.24435C10.508 8.28927 10.8096 8.37825 11.0958 8.50872L13.8615 9.86481C14.0907 9.9816 14.4984 10.1904 14.4984 10.5228C14.4984 10.8551 14.0982 11.0515 13.8615 11.1773L11.0958 12.5334C10.6735 12.7399 10.2151 12.8462 9.75158 12.8452C9.28595 12.8521 8.82487 12.7455 8.40258 12.5334L5.6369 11.1773C5.40019 11.0519 5 10.8517 5 10.521C5 10.1904 5.40771 9.98031 5.6369 9.86481ZM6.35217 10.8261C6.65696 10.9955 7.01835 10.9955 7.32315 10.8261C7.5931 10.6566 7.59469 10.3871 7.32315 10.219C7.17275 10.1363 7.0064 10.0932 6.83766 10.0932C6.66892 10.0932 6.50256 10.1363 6.35217 10.219C6.083 10.3867 6.08854 10.6554 6.35217 10.8261ZM9.75 7.86618C9.48773 7.86627 9.23133 7.7823 9.01322 7.6249C8.79511 7.4675 8.62509 7.24374 8.52465 6.98191C8.42422 6.72008 8.39788 6.43194 8.44897 6.15393C8.50005 5.87592 8.62628 5.62053 8.81167 5.42005C8.99707 5.21956 9.23331 5.083 9.49052 5.02762C9.74773 4.97224 10.0144 5.00054 10.2567 5.10892C10.499 5.21731 10.7062 5.40093 10.8519 5.63655C10.9977 5.87218 11.0756 6.14923 11.0756 6.43266V6.43395C11.0756 7.22493 10.4819 7.86618 9.75 7.86618Z" fill="white"/>
</svg>
