<svg width="12" height="20" viewBox="0 0 12 20" fill="none" xmlns="http://www.w3.org/2000/svg">
<path d="M11.1832 3.53343L4.71655 10.0001L11.1832 16.4668C11.3375 16.6211 11.4599 16.8043 11.5434 17.0059C11.6269 17.2075 11.6699 17.4235 11.6699 17.6418C11.6699 17.86 11.6269 18.0761 11.5434 18.2777C11.4599 18.4793 11.3375 18.6625 11.1832 18.8168C11.0289 18.9711 10.8457 19.0935 10.6441 19.177C10.4425 19.2605 10.2264 19.3035 10.0082 19.3035C9.79 19.3035 9.57392 19.2605 9.37232 19.177C9.17071 19.0935 8.98752 18.9711 8.83322 18.8168L1.18322 11.1668C0.533222 10.5168 0.533222 9.46676 1.18322 8.81676L8.83322 1.16677C8.98741 1.01226 9.17056 0.889681 9.37218 0.806045C9.5738 0.722408 9.78994 0.679359 10.0082 0.679359C10.2265 0.679359 10.4426 0.722408 10.6443 0.806045C10.8459 0.889681 11.029 1.01226 11.1832 1.16677C11.8166 1.81677 11.8332 2.88343 11.1832 3.53343Z" fill="#02FDFD"/>
</svg>
