<svg width="12" height="8" viewBox="0 0 12 8" fill="none" xmlns="http://www.w3.org/2000/svg">
<path d="M9.46202 0.999754L5.58202 4.87975L1.70202 0.999754C1.60944 0.907172 1.49953 0.833732 1.37856 0.783628C1.2576 0.733523 1.12795 0.707733 0.997021 0.707733C0.86609 0.707733 0.736442 0.733523 0.615478 0.783628C0.494513 0.833732 0.384603 0.907172 0.292021 0.999754C0.199439 1.09234 0.125999 1.20225 0.0758939 1.32321C0.0257889 1.44417 -9.75508e-10 1.57382 0 1.70475C9.7551e-10 1.83568 0.0257889 1.96533 0.0758939 2.0863C0.125999 2.20726 0.199439 2.31717 0.292021 2.40975L4.88202 6.99975C5.27202 7.38975 5.90202 7.38975 6.29202 6.99975L10.882 2.40975C10.9747 2.31724 11.0483 2.20735 11.0985 2.08638C11.1486 1.9654 11.1745 1.83572 11.1745 1.70475C11.1745 1.57379 11.1486 1.4441 11.0985 1.32313C11.0483 1.20216 10.9747 1.09227 10.882 0.999754C10.492 0.619754 9.85202 0.609754 9.46202 0.999754Z" fill="white"/>
</svg>
