<svg width="8" height="11" viewBox="0 0 8 11" fill="none" xmlns="http://www.w3.org/2000/svg">
<path d="M0.215248 6.56821C0.358745 6.42696 0.532139 6.35916 0.735427 6.36481C0.938716 6.37046 1.11211 6.44415 1.25561 6.58587L3.28251 8.58105L3.28251 0.706261C3.28251 0.506155 3.35139 0.338301 3.48915 0.202699C3.62691 0.067097 3.79719 -0.000468579 4 2.26895e-06C4.20329 2.27784e-06 4.37381 0.0678032 4.51157 0.203405C4.64933 0.339007 4.71797 0.506626 4.71749 0.706261L4.71749 8.58105L6.76233 6.56821C6.90583 6.42696 7.07635 6.35633 7.2739 6.35633C7.47145 6.35633 7.64173 6.42696 7.78475 6.56821C7.92825 6.70946 8 6.87732 8 7.07177C8 7.26623 7.92825 7.43385 7.78475 7.57463L4.50224 10.8058C4.43049 10.8764 4.35277 10.9265 4.26906 10.9562C4.18535 10.9859 4.09567 11.0005 4 11C3.90434 11 3.81465 10.9852 3.73094 10.9555C3.64723 10.9258 3.56951 10.8759 3.49776 10.8058L0.197311 7.55698C0.0657713 7.42749 1.59241e-07 7.26576 1.6772e-07 7.07177C1.76199e-07 6.87779 0.0717499 6.70993 0.215248 6.56821Z" fill="white"/>
</svg>
