<svg width="12" height="20" viewBox="0 0 12 20" fill="none" xmlns="http://www.w3.org/2000/svg">
<path d="M1.48353 3.53343L7.95019 10.0001L1.48353 16.4668C1.32922 16.6211 1.20682 16.8043 1.12332 17.0059C1.03981 17.2075 0.996826 17.4235 0.996826 17.6418C0.996826 17.86 1.03981 18.0761 1.12332 18.2777C1.20683 18.4793 1.32922 18.6625 1.48353 18.8168C1.63783 18.9711 1.82102 19.0935 2.02262 19.177C2.22423 19.2605 2.44031 19.3035 2.65853 19.3035C2.87674 19.3035 3.09283 19.2605 3.29443 19.177C3.49604 19.0935 3.67922 18.9711 3.83353 18.8168L11.4835 11.1668C12.1335 10.5168 12.1335 9.46676 11.4835 8.81676L3.83353 1.16677C3.67934 1.01226 3.49619 0.889679 3.29457 0.806044C3.09294 0.722408 2.87681 0.679357 2.65853 0.679357C2.44025 0.679357 2.22411 0.722408 2.02249 0.806044C1.82086 0.889679 1.63772 1.01226 1.48353 1.16677C0.850193 1.81676 0.833527 2.88343 1.48353 3.53343Z" fill="#02FDFD"/>
</svg>
