<svg width="20" height="20" viewBox="0 0 20 20" fill="none" xmlns="http://www.w3.org/2000/svg">
<rect width="20" height="20" rx="10" fill="#101010"/>
<path d="M13.0972 10.5C12.9094 10.5 12.7292 10.4254 12.5964 10.2925C12.4635 10.1597 12.3889 9.97953 12.3889 9.79167C12.3889 9.6038 12.4635 9.42364 12.5964 9.2908C12.7292 9.15796 12.9094 9.08333 13.0972 9.08333C13.2851 9.08333 13.4653 9.15796 13.5981 9.2908C13.7309 9.42364 13.8056 9.6038 13.8056 9.79167C13.8056 9.97953 13.7309 10.1597 13.5981 10.2925C13.4653 10.4254 13.2851 10.5 13.0972 10.5ZM11.6806 8.61111C11.4927 8.61111 11.3125 8.53648 11.1797 8.40365C11.0468 8.27081 10.9722 8.09064 10.9722 7.90278C10.9722 7.71492 11.0468 7.53475 11.1797 7.40191C11.3125 7.26907 11.4927 7.19444 11.6806 7.19444C11.8684 7.19444 12.0486 7.26907 12.1814 7.40191C12.3143 7.53475 12.3889 7.71492 12.3889 7.90278C12.3889 8.09064 12.3143 8.27081 12.1814 8.40365C12.0486 8.53648 11.8684 8.61111 11.6806 8.61111ZM9.31944 8.61111C9.13158 8.61111 8.95142 8.53648 8.81858 8.40365C8.68574 8.27081 8.61111 8.09064 8.61111 7.90278C8.61111 7.71492 8.68574 7.53475 8.81858 7.40191C8.95142 7.26907 9.13158 7.19444 9.31944 7.19444C9.50731 7.19444 9.68747 7.26907 9.82031 7.40191C9.95315 7.53475 10.0278 7.71492 10.0278 7.90278C10.0278 8.09064 9.95315 8.27081 9.82031 8.40365C9.68747 8.53648 9.50731 8.61111 9.31944 8.61111ZM7.90278 10.5C7.71492 10.5 7.53475 10.4254 7.40191 10.2925C7.26907 10.1597 7.19444 9.97953 7.19444 9.79167C7.19444 9.6038 7.26907 9.42364 7.40191 9.2908C7.53475 9.15796 7.71492 9.08333 7.90278 9.08333C8.09064 9.08333 8.27081 9.15796 8.40365 9.2908C8.53648 9.42364 8.61111 9.6038 8.61111 9.79167C8.61111 9.97953 8.53648 10.1597 8.40365 10.2925C8.27081 10.4254 8.09064 10.5 7.90278 10.5ZM10.5 6.25C9.37283 6.25 8.29183 6.69777 7.4948 7.4948C6.69777 8.29183 6.25 9.37283 6.25 10.5C6.25 11.6272 6.69777 12.7082 7.4948 13.5052C8.29183 14.3022 9.37283 14.75 10.5 14.75C10.6879 14.75 10.868 14.6754 11.0009 14.5425C11.1337 14.4097 11.2083 14.2295 11.2083 14.0417C11.2083 13.8575 11.1375 13.6922 11.0242 13.5694C10.9156 13.4419 10.8447 13.2767 10.8447 13.0972C10.8447 12.9094 10.9194 12.7292 11.0522 12.5964C11.185 12.4635 11.3652 12.3889 11.5531 12.3889H12.3889C13.0151 12.3889 13.6157 12.1401 14.0584 11.6973C14.5012 11.2545 14.75 10.654 14.75 10.0278C14.75 7.94056 12.8469 6.25 10.5 6.25Z" fill="white"/>
</svg>
