<svg width="21" height="20" viewBox="0 0 21 20" fill="none" xmlns="http://www.w3.org/2000/svg">
<path d="M13.7761 4C14.5008 4 15.0571 4.57956 15.4693 5.20312L15.6089 5.42381L15.7366 5.64381C15.7773 5.71531 15.8159 5.78681 15.8533 5.85556C16.369 6.82288 16.8178 8.08581 17.1146 9.33363C17.4095 10.5718 17.5726 11.865 17.4685 12.8818C17.3636 13.9028 16.8624 15 15.7419 15C14.7367 15 13.9445 14.4362 13.3011 13.8856L12.5737 13.2455C11.9689 12.7257 11.3071 12.25 10.4999 12.25C9.6926 12.25 9.03015 12.7257 8.42666 13.2455L7.69933 13.8849C7.05457 14.4363 6.26237 15 5.25787 15C4.13673 15 3.63547 13.9028 3.53128 12.8818C3.42775 11.8643 3.59025 10.5718 3.88512 9.33294C4.18195 8.08581 4.63079 6.82356 5.14648 5.85556L5.26311 5.64313L5.39088 5.42381L5.53045 5.20312C5.9426 4.57956 6.49891 4 7.22362 4C7.5578 4 7.89001 4.08525 8.21632 4.18562L8.60489 4.31075C8.6691 4.33138 8.73266 4.35131 8.79622 4.36988C9.36301 4.54038 9.94291 4.6875 10.4999 4.6875C11.0568 4.6875 11.6367 4.54038 12.2035 4.36988L12.7834 4.18631C13.1097 4.08525 13.4419 4 13.7761 4ZM8.2065 6.75C7.77204 6.75 7.35537 6.93108 7.04817 7.25341C6.74096 7.57574 6.56837 8.01291 6.56837 8.46875C6.56837 8.92459 6.74096 9.36176 7.04817 9.68409C7.35537 10.0064 7.77204 10.1875 8.2065 10.1875C8.64095 10.1875 9.05762 10.0064 9.36483 9.68409C9.67203 9.36176 9.84462 8.92459 9.84462 8.46875C9.84462 8.01291 9.67203 7.57574 9.36483 7.25341C9.05762 6.93108 8.64095 6.75 8.2065 6.75ZM12.7933 6.75C12.6195 6.75 12.4528 6.82243 12.3299 6.95136C12.207 7.0803 12.138 7.25516 12.138 7.4375V7.78125H11.8104C11.6366 7.78125 11.4699 7.85368 11.347 7.98261C11.2242 8.11155 11.1551 8.28641 11.1551 8.46875C11.1551 8.65109 11.2242 8.82595 11.347 8.95489C11.4699 9.08382 11.6366 9.15625 11.8104 9.15625H12.138V9.5C12.138 9.68234 12.207 9.8572 12.3299 9.98614C12.4528 10.1151 12.6195 10.1875 12.7933 10.1875C12.967 10.1875 13.1337 10.1151 13.2566 9.98614C13.3795 9.8572 13.4485 9.68234 13.4485 9.5V9.15625H13.7761C13.9499 9.15625 14.1166 9.08382 14.2395 8.95489C14.3623 8.82595 14.4314 8.65109 14.4314 8.46875C14.4314 8.28641 14.3623 8.11155 14.2395 7.98261C14.1166 7.85368 13.9499 7.78125 13.7761 7.78125H13.4485V7.4375C13.4485 7.25516 13.3795 7.0803 13.2566 6.95136C13.1337 6.82243 12.967 6.75 12.7933 6.75ZM8.2065 8.125C8.29339 8.125 8.37672 8.16122 8.43816 8.22568C8.4996 8.29015 8.53412 8.37758 8.53412 8.46875C8.53412 8.55992 8.4996 8.64735 8.43816 8.71182C8.37672 8.77628 8.29339 8.8125 8.2065 8.8125C8.1196 8.8125 8.03627 8.77628 7.97483 8.71182C7.91339 8.64735 7.87887 8.55992 7.87887 8.46875C7.87887 8.37758 7.91339 8.29015 7.97483 8.22568C8.03627 8.16122 8.1196 8.125 8.2065 8.125Z" fill="white"/>
</svg>
