<svg width="20" height="20" viewBox="0 0 20 20" fill="none" xmlns="http://www.w3.org/2000/svg">
<rect width="20" height="20" rx="10" fill="#101010"/>
<path d="M10.25 8.73864C9.94259 8.73864 9.64777 8.86075 9.4304 9.07813C9.21303 9.2955 9.09091 9.59032 9.09091 9.89773C9.09091 10.2051 9.21303 10.5 9.4304 10.7173C9.64777 10.9347 9.94259 11.0568 10.25 11.0568C10.5574 11.0568 10.8522 10.9347 11.0696 10.7173C11.287 10.5 11.4091 10.2051 11.4091 9.89773C11.4091 9.59032 11.287 9.2955 11.0696 9.07813C10.8522 8.86075 10.5574 8.73864 10.25 8.73864ZM10.25 11.8295C9.73765 11.8295 9.24628 11.626 8.884 11.2637C8.52171 10.9014 8.31818 10.4101 8.31818 9.89773C8.31818 9.38538 8.52171 8.89401 8.884 8.53173C9.24628 8.16944 9.73765 7.96591 10.25 7.96591C10.7624 7.96591 11.2537 8.16944 11.616 8.53173C11.9783 8.89401 12.1818 9.38538 12.1818 9.89773C12.1818 10.4101 11.9783 10.9014 11.616 11.2637C11.2537 11.626 10.7624 11.8295 10.25 11.8295ZM10.25 7C8.31818 7 6.66841 8.20159 6 9.89773C6.66841 11.5939 8.31818 12.7955 10.25 12.7955C12.1818 12.7955 13.8316 11.5939 14.5 9.89773C13.8316 8.20159 12.1818 7 10.25 7Z" fill="white"/>
</svg>
