<svg width="20" height="20" viewBox="0 0 20 20" fill="none" xmlns="http://www.w3.org/2000/svg">
<rect width="20" height="20" rx="10" fill="#101010"/>
<path d="M13.8599 6.56974C13.8084 6.53839 13.7491 6.51867 13.687 6.51231C13.6249 6.50595 13.562 6.51315 13.5038 6.53328C12.8909 6.76788 12.2423 6.92148 11.5788 6.98912C11.1597 6.89011 10.7597 6.73647 10.3918 6.53328C9.91712 6.27412 9.3922 6.09484 8.84359 6.0045C8.17785 5.9498 6.59349 6.4102 6.2632 6.50593C6.18653 6.5288 6.11991 6.57232 6.0727 6.63038C6.02548 6.68843 6.00006 6.7581 6 6.82958V13.6581C6 13.7488 6.04078 13.8357 6.11337 13.8999C6.18595 13.964 6.2844 14 6.38706 14C6.48971 14 6.58816 13.964 6.66075 13.8999C6.73334 13.8357 6.77412 13.7488 6.77412 13.6581V10.9869C7.41746 10.7855 8.08658 10.6553 8.76618 10.5994C9.20315 10.6941 9.62093 10.8479 10.0048 11.0552C10.4538 11.2977 10.9458 11.4718 11.4601 11.5704H11.5788C12.3258 11.485 13.0565 11.3117 13.7515 11.0552C13.824 11.0299 13.8864 10.9859 13.9305 10.9291C13.9746 10.8723 13.9985 10.8051 13.9992 10.7362V6.85237C14.0031 6.79887 13.9925 6.74533 13.9682 6.69618C13.944 6.64703 13.9069 6.60368 13.8599 6.56974Z" fill="white"/>
</svg>
