<svg width="20" height="20" viewBox="0 0 20 20" fill="none" xmlns="http://www.w3.org/2000/svg">
<rect width="20" height="20" rx="10" fill="#101010"/>
<path d="M7.78112 7.74009L14.7806 5.86459L15.2659 7.6757L14.8284 7.79292L14.9497 8.24569L12.3249 8.94901C12.2089 8.9801 12.1104 9.05761 12.0511 9.16451C11.9918 9.2714 11.9766 9.39892 12.0088 9.519L12.1301 9.97178C12.1945 10.2119 12.164 10.467 12.0454 10.6808C11.9268 10.8946 11.7299 11.0496 11.4978 11.1118L10.0192 11.508C9.85293 11.5525 9.72651 11.6932 9.69339 11.867L9.21486 14.3683C9.18174 14.5422 9.05848 14.6771 8.89224 14.7216L7.41361 15.1178C7.41361 15.1178 6.10121 15.4695 7.12314 12.284C7.12314 12.284 7.95026 10.1212 6.20039 10.5901L5.59379 8.32618L6.03125 8.20896L6.12866 7.69758L7.44106 7.34592L7.78112 7.74009ZM11.6926 10.089L11.5713 9.63622C11.5391 9.51614 11.4622 9.41332 11.3574 9.35039C11.2526 9.28746 11.1285 9.26958 11.0125 9.30066L10.5751 9.41788C10.5751 9.41788 10.2589 9.98788 10.8177 10.3234C10.5857 10.3856 10.3375 10.3498 10.128 10.224C9.91837 10.0981 9.76448 9.89249 9.70012 9.65232C9.5841 9.68341 9.48561 9.76093 9.42632 9.86782C9.36703 9.97472 9.3518 10.1022 9.38398 10.2223L9.5053 10.6751C9.53748 10.7952 9.61443 10.898 9.71922 10.9609C9.82401 11.0239 9.94806 11.0417 10.0641 11.0107L11.3765 10.659C11.4925 10.6279 11.591 10.5504 11.6503 10.4435C11.7096 10.3366 11.7248 10.2091 11.6926 10.089Z" fill="white"/>
</svg>
