<svg width="18" height="16" viewBox="0 0 18 16" fill="none" xmlns="http://www.w3.org/2000/svg">
<path d="M18 4.66437C18.0014 5.27633 17.8813 5.88249 17.6469 6.44779C17.4124 7.01308 17.0682 7.52629 16.634 7.95773L9.45872 15.2369C9.39891 15.2976 9.32761 15.3458 9.24898 15.3787C9.17036 15.4116 9.08597 15.4286 9.00072 15.4286C8.91548 15.4286 8.83109 15.4116 8.75246 15.3787C8.67383 15.3458 8.60254 15.2976 8.54272 15.2369L1.36742 7.95773C0.492628 7.08428 0.00075429 5.8992 8.66805e-07 4.6632C-0.000752557 3.42719 0.489676 2.24151 1.3634 1.367C2.23712 0.492477 3.42257 0.000754077 4.65895 8.66581e-07C5.89533 -0.000752344 7.08138 0.489526 7.95616 1.36298L9.00072 2.33894L10.0525 1.35977C10.7053 0.710402 11.5359 0.268945 12.4395 0.0911243C13.3431 -0.086696 14.2791 0.00709356 15.1294 0.360652C15.9797 0.714211 16.7062 1.31169 17.2171 2.07765C17.728 2.84362 18.0004 3.74374 18 4.66437Z" fill="#FF5959"/>
</svg>
