<svg width="18" height="16" viewBox="0 0 18 16" fill="none" xmlns="http://www.w3.org/2000/svg">
<path d="M16.6579 1.35012C15.7993 0.49082 14.6363 0.00767027 13.4235 0.00644026C12.2106 0.00521026 11.0466 0.486 10.1864 1.34356L9.002 2.44939L7.81763 1.34356C6.95805 0.482524 5.79263 -0.000768321 4.57777 9.16867e-07C3.3629 0.000770154 2.1981 0.485539 1.3396 1.34766C0.481102 2.20979 -0.000766038 3.37864 9.14122e-07 4.5971C0.000767866 5.81556 0.484107 6.98381 1.34369 7.84484L8.65274 15.2821C8.69839 15.3285 8.75277 15.3654 8.81273 15.3905C8.87268 15.4156 8.93702 15.4286 9.002 15.4286C9.06698 15.4286 9.13131 15.4156 9.19127 15.3905C9.25122 15.3654 9.3056 15.3285 9.35126 15.2821L16.6579 7.84812C17.0834 7.42151 17.4209 6.91501 17.6512 6.35753C17.8815 5.80006 18 5.20255 18 4.59912C18 3.9957 17.8815 3.39818 17.6512 2.84071C17.4209 2.28324 17.0834 1.77673 16.6579 1.35012ZM15.961 7.15411L9.002 14.2354L2.04057 7.15165C1.36957 6.47395 0.993721 5.55716 0.995344 4.60208C0.996967 3.647 1.37593 2.7315 2.04923 2.05611C2.72253 1.38071 3.63527 1.00048 4.58753 0.998696C5.53979 0.996915 6.45394 1.37373 7.12975 2.0466C7.13372 2.05086 7.1381 2.0547 7.14284 2.05809L8.66746 3.48222C8.7583 3.5671 8.87784 3.61429 9.002 3.61429C9.12615 3.61429 9.24569 3.5671 9.33653 3.48222L10.8612 2.05727C10.8659 2.05388 10.8703 2.05004 10.8742 2.04578C11.2082 1.70885 11.6052 1.44136 12.0424 1.25864C12.4797 1.07592 12.9486 0.981567 13.4223 0.980996C13.8959 0.980426 14.3651 1.07365 14.8028 1.25531C15.2405 1.43698 15.6381 1.70352 15.9728 2.03964C16.3076 2.37576 16.5729 2.77486 16.7535 3.21404C16.9342 3.65322 17.0266 4.12385 17.0255 4.59893C17.0244 5.07401 16.9298 5.54421 16.7471 5.98254C16.5644 6.42087 16.2973 6.81873 15.961 7.15329V7.15411Z" fill="white"/>
</svg>
