<svg width="104" height="35" viewBox="0 0 104 35" fill="none" xmlns="http://www.w3.org/2000/svg">
<path d="M7.0376 8.01562C7.36768 8.08333 7.70199 8.12988 8.04053 8.15527C8.37907 8.18066 8.72184 8.19336 9.06885 8.19336C10.186 8.19336 11.1001 8.00293 11.811 7.62207C12.522 7.24121 13.0806 6.71647 13.4868 6.04785C13.8931 5.37923 14.1766 4.59212 14.3374 3.68652C14.4982 2.77246 14.5871 1.78646 14.604 0.728516C15.3319 0.76237 16.0174 0.813151 16.6606 0.880859C17.3039 0.940104 17.8752 1.00358 18.3745 1.07129C18.95 1.14746 19.4875 1.22786 19.9868 1.3125V4.53711C19.8599 4.49479 19.6948 4.44824 19.4917 4.39746C19.297 4.34668 19.077 4.2959 18.8315 4.24512C18.5946 4.18587 18.3364 4.13086 18.0571 4.08008C17.7863 4.02083 17.507 3.96159 17.2192 3.90234C17.16 4.44401 17.0711 4.98145 16.9526 5.51465C16.8426 6.03939 16.686 6.54297 16.4829 7.02539C16.2798 7.50781 16.0216 7.95215 15.7085 8.3584C15.4038 8.75618 15.0272 9.09896 14.5786 9.38672C15.1711 9.58138 15.6958 9.86914 16.1528 10.25C16.6099 10.6309 17.0034 11.071 17.3335 11.5703C17.672 12.0612 17.9513 12.5986 18.1714 13.1826C18.3999 13.7666 18.5819 14.359 18.7173 14.96C18.8527 15.5609 18.95 16.1618 19.0093 16.7627C19.0685 17.3551 19.0981 17.9095 19.0981 18.4258C19.0981 18.7051 19.0897 18.9759 19.0728 19.2383C19.0643 19.4922 19.0474 19.7292 19.022 19.9492H16.0259C16.0682 19.6445 16.0936 19.3525 16.1021 19.0732C16.119 18.7855 16.1274 18.502 16.1274 18.2227C16.1274 17.1224 15.9963 16.1322 15.7339 15.252C15.4715 14.3717 15.1034 13.627 14.6294 13.0176C14.1554 12.3997 13.5884 11.93 12.9282 11.6084C12.2765 11.2783 11.5571 11.1133 10.77 11.1133C10.2368 11.1133 9.78402 11.126 9.41162 11.1514C9.03923 11.1768 8.71338 11.2148 8.43408 11.2656C8.15479 11.3079 7.90511 11.3587 7.68506 11.418C7.47347 11.4772 7.25765 11.5365 7.0376 11.5957V19.9492H3.91455V4.00391C3.43213 4.10547 2.98356 4.2028 2.56885 4.2959C2.1626 4.38053 1.85791 4.46094 1.65479 4.53711V1.3125C2.13721 1.22786 2.67041 1.14746 3.25439 1.07129C3.74528 1.00358 4.31657 0.940104 4.96826 0.880859C5.61995 0.813151 6.30973 0.76237 7.0376 0.728516V8.01562ZM27.2739 20H24.0493V5.52734H27.2739V20ZM25.6743 0.5C26.3006 0.5 26.7957 0.605794 27.1597 0.817383C27.5236 1.02051 27.7056 1.34635 27.7056 1.79492V2.42969C27.7056 2.83594 27.5236 3.12793 27.1597 3.30566C26.7957 3.4834 26.3006 3.57227 25.6743 3.57227C25.0734 3.57227 24.5868 3.4834 24.2144 3.30566C23.8504 3.12793 23.6685 2.83594 23.6685 2.42969V1.79492C23.6685 1.34635 23.8504 1.02051 24.2144 0.817383C24.5868 0.605794 25.0734 0.5 25.6743 0.5ZM32.5552 9.51367C32.5213 9.24284 32.4409 9.01432 32.314 8.82812C32.1955 8.64193 32.0643 8.48958 31.9204 8.37109C31.7596 8.22721 31.5819 8.10872 31.3872 8.01562L32.8091 5.52734C33.1222 5.63737 33.4354 5.78548 33.7485 5.97168C34.0109 6.13249 34.286 6.33984 34.5737 6.59375C34.87 6.83919 35.1281 7.14388 35.3481 7.50781C35.7713 7.23698 36.203 6.98307 36.6431 6.74609C37.0916 6.50065 37.5571 6.28906 38.0396 6.11133C38.5304 5.93359 39.0425 5.79395 39.5757 5.69238C40.1174 5.58236 40.6971 5.52734 41.3149 5.52734C42.6183 5.52734 43.7355 5.63737 44.6665 5.85742C45.606 6.06901 46.3719 6.39062 46.9644 6.82227C47.5653 7.24544 48.0054 7.77441 48.2847 8.40918C48.564 9.04395 48.7036 9.78451 48.7036 10.6309V20H45.3774V11.418C45.3774 10.944 45.314 10.5378 45.187 10.1992C45.0601 9.85221 44.8866 9.56022 44.6665 9.32324C44.4549 9.0778 44.2052 8.87891 43.9175 8.72656C43.6297 8.57422 43.3293 8.45996 43.0161 8.38379C42.7114 8.29915 42.3983 8.24414 42.0767 8.21875C41.755 8.1849 41.4504 8.16797 41.1626 8.16797C40.6209 8.16797 40.1047 8.20605 39.6138 8.28223C39.1229 8.3584 38.6574 8.46419 38.2173 8.59961C37.7772 8.72656 37.3625 8.87891 36.9731 9.05664C36.5838 9.23438 36.2199 9.42057 35.8813 9.61523V20H32.5552V9.51367ZM61.4243 5.52734C61.856 5.52734 62.3765 5.5485 62.9858 5.59082C63.5952 5.63314 64.2257 5.70931 64.8774 5.81934C65.5376 5.9209 66.1893 6.06901 66.8325 6.26367C67.4757 6.44987 68.0513 6.69108 68.5591 6.9873C69.0754 7.28353 69.4901 7.64323 69.8032 8.06641C70.1248 8.48112 70.2856 8.97201 70.2856 9.53906V13.8301H55.7368V17.0801C56.7609 17.224 57.7469 17.3255 58.6948 17.3848C59.6427 17.4355 60.5526 17.4609 61.4243 17.4609C62.7531 17.4609 63.9549 17.4102 65.0298 17.3086C66.1131 17.207 67.0483 17.0928 67.8354 16.9658C68.741 16.8219 69.5578 16.6569 70.2856 16.4707V19.2891C68.6776 19.543 67.1245 19.7249 65.6265 19.835C64.1369 19.945 62.7362 20 61.4243 20C60.104 20 58.9064 19.9661 57.8315 19.8984C56.7567 19.8223 55.8341 19.7376 55.064 19.6445C54.1668 19.543 53.3586 19.4245 52.6392 19.2891V9.53906C52.6392 8.97201 52.7788 8.48112 53.0581 8.06641C53.3374 7.64323 53.7098 7.28353 54.1753 6.9873C54.6408 6.69108 55.174 6.44987 55.7749 6.26367C56.3843 6.06901 57.0148 5.9209 57.6665 5.81934C58.3182 5.70931 58.9657 5.63314 59.6089 5.59082C60.2606 5.5485 60.8657 5.52734 61.4243 5.52734ZM55.7368 11.7988H67.1372V10.3262C67.1372 9.97917 67.0526 9.68294 66.8833 9.4375C66.714 9.18359 66.4855 8.97201 66.1978 8.80273C65.9185 8.63346 65.5884 8.49805 65.2075 8.39648C64.8351 8.28646 64.4458 8.20605 64.0396 8.15527C63.6333 8.09603 63.2228 8.05794 62.8081 8.04102C62.4019 8.02409 62.0168 8.01562 61.6528 8.01562C61.272 8.01562 60.8615 8.02409 60.4214 8.04102C59.9897 8.05794 59.5539 8.09603 59.1138 8.15527C58.6737 8.21452 58.2505 8.29915 57.8442 8.40918C57.438 8.51074 57.0783 8.65039 56.7651 8.82812C56.452 8.9974 56.2023 9.20898 56.0161 9.46289C55.8299 9.70833 55.7368 10.0046 55.7368 10.3516V11.7988ZM82.5239 5.29883C83.2264 5.29883 83.9331 5.33268 84.644 5.40039C85.355 5.4681 86.0363 5.57812 86.688 5.73047C87.3397 5.88281 87.9491 6.07324 88.5161 6.30176C89.0832 6.53027 89.5741 6.80534 89.9888 7.12695C90.4119 7.44857 90.742 7.82096 90.979 8.24414C91.216 8.65885 91.3345 9.12435 91.3345 9.64062L88.0845 10.123C88.0845 9.75911 87.9279 9.43327 87.6147 9.14551C87.3016 8.84928 86.8869 8.60384 86.3706 8.40918C85.8543 8.20605 85.2619 8.05371 84.5933 7.95215C83.9246 7.84212 83.2349 7.78711 82.5239 7.78711C81.8468 7.78711 81.1782 7.83789 80.5181 7.93945C79.8579 8.03255 79.2655 8.17643 78.7407 8.37109C78.2244 8.56576 77.8013 8.8112 77.4712 9.10742C77.1496 9.39518 76.9888 9.73372 76.9888 10.123V15.4043C76.9888 15.7936 77.1496 16.1322 77.4712 16.4199C77.8013 16.6992 78.2244 16.9362 78.7407 17.1309C79.2655 17.3171 79.8579 17.4567 80.5181 17.5498C81.1782 17.6429 81.8468 17.6895 82.5239 17.6895C83.2349 17.6895 83.9246 17.6387 84.5933 17.5371C85.2619 17.4355 85.8543 17.2917 86.3706 17.1055C86.8869 16.9108 87.3016 16.6738 87.6147 16.3945C87.9279 16.1068 88.0845 15.7767 88.0845 15.4043L91.3345 16.2168C91.3345 16.6738 91.216 17.0928 90.979 17.4736C90.742 17.8545 90.4119 18.1973 89.9888 18.502C89.5741 18.7982 89.0832 19.0563 88.5161 19.2764C87.9491 19.4964 87.3397 19.6784 86.688 19.8223C86.0363 19.9661 85.355 20.0719 84.644 20.1396C83.9331 20.2158 83.2264 20.2539 82.5239 20.2539C81.8215 20.2539 81.1147 20.2158 80.4038 20.1396C79.7013 20.0719 79.0243 19.9661 78.3726 19.8223C77.7209 19.6784 77.1115 19.4964 76.5444 19.2764C75.9858 19.0563 75.495 18.7982 75.0718 18.502C74.6571 18.1973 74.3312 17.8587 74.0942 17.4863C73.8573 17.1055 73.7388 16.6823 73.7388 16.2168V9.64062C73.7388 9.12435 73.8573 8.65885 74.0942 8.24414C74.3312 7.82096 74.6571 7.44857 75.0718 7.12695C75.495 6.80534 75.9858 6.53027 76.5444 6.30176C77.1115 6.07324 77.7209 5.88281 78.3726 5.73047C79.0243 5.57812 79.7013 5.4681 80.4038 5.40039C81.1147 5.33268 81.8215 5.29883 82.5239 5.29883ZM98.5454 5.34961H101.77V7.48242H98.5454V20H95.5239V7.48242H93.1372V5.34961H95.5239V0.931641H98.5454V5.34961Z" fill="#CDCDCD"/>
<path fill-rule="evenodd" clip-rule="evenodd" d="M1 26C0.447715 26 0 26.4477 0 27V34C0 34.5523 0.447715 35 1 35H100C100.552 35 101 34.5523 101 34V27C101 26.4477 100.552 26 100 26H1ZM10.5 33C11.8807 33 13 31.8807 13 30.5C13 29.1193 11.8807 28 10.5 28C9.11929 28 8 29.1193 8 30.5C8 31.8807 9.11929 33 10.5 33ZM19 30.5C19 31.8807 17.8807 33 16.5 33C15.1193 33 14 31.8807 14 30.5C14 29.1193 15.1193 28 16.5 28C17.8807 28 19 29.1193 19 30.5ZM88.5 33C89.8807 33 91 31.8807 91 30.5C91 29.1193 89.8807 28 88.5 28C87.1193 28 86 29.1193 86 30.5C86 31.8807 87.1193 33 88.5 33ZM25 30.5C25 31.8807 23.8807 33 22.5 33C21.1193 33 20 31.8807 20 30.5C20 29.1193 21.1193 28 22.5 28C23.8807 28 25 29.1193 25 30.5ZM94.5 33C95.8807 33 97 31.8807 97 30.5C97 29.1193 95.8807 28 94.5 28C93.1193 28 92 29.1193 92 30.5C92 31.8807 93.1193 33 94.5 33Z" fill="#D9D9D9"/>
<path d="M11 30.5C11 30.7761 10.7761 31 10.5 31C10.2239 31 10 30.7761 10 30.5C10 30.2239 10.2239 30 10.5 30C10.7761 30 11 30.2239 11 30.5Z" fill="#D9D9D9"/>
<path d="M17 30.5C17 30.7761 16.7761 31 16.5 31C16.2239 31 16 30.7761 16 30.5C16 30.2239 16.2239 30 16.5 30C16.7761 30 17 30.2239 17 30.5Z" fill="#D9D9D9"/>
<path d="M23 30.5C23 30.7761 22.7761 31 22.5 31C22.2239 31 22 30.7761 22 30.5C22 30.2239 22.2239 30 22.5 30C22.7761 30 23 30.2239 23 30.5Z" fill="#D9D9D9"/>
</svg>
