<svg width="42" height="42" viewBox="0 0 42 42" fill="none" xmlns="http://www.w3.org/2000/svg">
<rect width="42" height="42" rx="20" transform="matrix(4.37114e-08 -1 -1 -4.37114e-08 42 42)" fill="white"/>
<path d="M26.0122 15.4519L19.5303 21.0075L26.0122 26.563C26.1668 26.6955 26.2895 26.8529 26.3732 27.0261C26.4569 27.1993 26.5 27.385 26.5 27.5724C26.5 27.7599 26.4569 27.9455 26.3732 28.1187C26.2895 28.2919 26.1668 28.4493 26.0122 28.5819C25.8575 28.7144 25.6739 28.8196 25.4718 28.8913C25.2697 28.9631 25.0531 29 24.8344 29C24.6157 29 24.3991 28.9631 24.197 28.8913C23.9949 28.8196 23.8113 28.7144 23.6566 28.5819L15.9886 22.0097C15.3371 21.4513 15.3371 20.5493 15.9886 19.9909L23.6566 13.4187C23.8112 13.286 23.9948 13.1807 24.1969 13.1088C24.399 13.037 24.6156 13 24.8344 13C25.0532 13 25.2698 13.037 25.4719 13.1088C25.674 13.1807 25.8576 13.286 26.0122 13.4187C26.647 13.9771 26.6637 14.8935 26.0122 15.4519Z" fill="#50ABFF"/>
</svg>
