<svg width="42" height="42" viewBox="0 0 42 42" fill="none" xmlns="http://www.w3.org/2000/svg">
<rect y="42" width="42" height="42" rx="20" transform="rotate(-90 0 42)" fill="#50ABFF"/>
<path d="M15.9878 15.4519L22.4697 21.0075L15.9878 26.563C15.8332 26.6955 15.7105 26.8529 15.6268 27.0261C15.5431 27.1993 15.5 27.385 15.5 27.5724C15.5 27.7599 15.5431 27.9455 15.6268 28.1187C15.7105 28.2919 15.8332 28.4493 15.9878 28.5819C16.1425 28.7144 16.3261 28.8196 16.5282 28.8913C16.7303 28.9631 16.9469 29 17.1656 29C17.3843 29 17.6009 28.9631 17.803 28.8913C18.0051 28.8196 18.1887 28.7144 18.3434 28.5819L26.0114 22.0097C26.6629 21.4513 26.6629 20.5493 26.0114 19.9909L18.3434 13.4187C18.1888 13.286 18.0052 13.1807 17.8031 13.1088C17.601 13.037 17.3844 13 17.1656 13C16.9468 13 16.7302 13.037 16.5281 13.1088C16.326 13.1807 16.1424 13.286 15.9878 13.4187C15.353 13.9771 15.3363 14.8935 15.9878 15.4519Z" fill="white"/>
</svg>
