<svg width="11" height="7" viewBox="0 0 11 7" fill="none" xmlns="http://www.w3.org/2000/svg">
<path d="M1.68571 0.310446L5.50513 4.43527L9.32455 0.310447C9.41569 0.212023 9.52388 0.13395 9.64296 0.0806831C9.76203 0.0274166 9.88966 -9.6032e-08 10.0185 -8.58015e-08C10.1474 -7.55709e-08 10.2751 0.0274166 10.3941 0.0806832C10.5132 0.13395 10.6214 0.212023 10.7125 0.310447C10.8037 0.408871 10.876 0.525717 10.9253 0.654314C10.9746 0.782911 11 0.92074 11 1.05993C11 1.19912 10.9746 1.33695 10.9253 1.46555C10.876 1.59415 10.8037 1.71099 10.7125 1.80942L6.1942 6.68904C5.81029 7.10365 5.19013 7.10365 4.80622 6.68904L0.287879 1.80942C0.196623 1.71107 0.124224 1.59424 0.0748261 1.46564C0.0254277 1.33703 8.4884e-07 1.19916 8.61012e-07 1.05993C8.73184e-07 0.920699 0.0254277 0.782833 0.0748262 0.654227C0.124224 0.52562 0.196623 0.408797 0.287879 0.310446C0.67179 -0.0935316 1.3018 -0.104162 1.68571 0.310446Z" fill="#50ABFF"/>
</svg>
