<svg width="26" height="26" viewBox="0 0 26 26" fill="none" xmlns="http://www.w3.org/2000/svg">
<g opacity="0.6">
<path d="M16.6452 9.18571L11.9311 13.0051L16.6452 16.8246C16.7577 16.9157 16.8469 17.0239 16.9078 17.143C16.9687 17.262 17 17.3897 17 17.5185C17 17.6474 16.9687 17.7751 16.9078 17.8941C16.8469 18.0132 16.7577 18.1214 16.6452 18.2125C16.5327 18.3037 16.3992 18.376 16.2522 18.4253C16.1052 18.4746 15.9477 18.5 15.7886 18.5C15.6296 18.5 15.4721 18.4746 15.3251 18.4253C15.1781 18.376 15.0446 18.3037 14.9321 18.2125L9.35538 13.6942C8.88154 13.3103 8.88154 12.6901 9.35538 12.3062L14.9321 7.78788C15.0445 7.69662 15.178 7.62422 15.325 7.57483C15.472 7.52543 15.6295 7.5 15.7886 7.5C15.9478 7.5 16.1053 7.52543 16.2523 7.57483C16.3993 7.62422 16.5328 7.69662 16.6452 7.78788C17.1069 8.17179 17.119 8.8018 16.6452 9.18571Z" fill="white"/>
<rect x="-1" y="-1" width="24" height="24" rx="12" transform="matrix(4.37114e-08 -1 -1 -4.37114e-08 24 24)" stroke="white" stroke-width="2"/>
</g>
</svg>
