<svg width="26" height="26" viewBox="0 0 26 26" fill="none" xmlns="http://www.w3.org/2000/svg">
<path d="M9.3548 9.18571L14.0689 13.0051L9.3548 16.8246C9.24231 16.9157 9.15309 17.0239 9.09221 17.143C9.03133 17.262 9 17.3897 9 17.5185C9 17.6474 9.03133 17.7751 9.09221 17.8941C9.15309 18.0132 9.24231 18.1214 9.3548 18.2125C9.46728 18.3037 9.60082 18.376 9.74779 18.4253C9.89476 18.4746 10.0523 18.5 10.2114 18.5C10.3704 18.5 10.5279 18.4746 10.6749 18.4253C10.8219 18.376 10.9554 18.3037 11.0679 18.2125L16.6446 13.6942C17.1185 13.3103 17.1185 12.6901 16.6446 12.3062L11.0679 7.78788C10.9555 7.69662 10.822 7.62422 10.675 7.57483C10.528 7.52543 10.3705 7.5 10.2114 7.5C10.0522 7.5 9.89467 7.52543 9.74769 7.57483C9.60071 7.62422 9.4672 7.69662 9.3548 7.78788C8.89311 8.17179 8.88096 8.8018 9.3548 9.18571Z" fill="white"/>
<rect x="1" y="25" width="24" height="24" rx="12" transform="rotate(-90 1 25)" stroke="white" stroke-width="2"/>
</svg>
