<svg width="35" height="31" viewBox="0 0 35 31" fill="none" xmlns="http://www.w3.org/2000/svg">
<path d="M35 9.0724C35.0026 10.2627 34.7693 11.4417 34.3134 12.5412C33.8575 13.6407 33.1881 14.639 32.3439 15.4781L18.392 29.6364C18.2757 29.7544 18.137 29.8482 17.9841 29.9122C17.8312 29.9763 17.6672 30.0092 17.5014 30.0092C17.3357 30.0092 17.1716 29.9763 17.0187 29.9122C16.8658 29.8482 16.7272 29.7544 16.6109 29.6364L2.65886 15.4781C0.957888 13.7792 0.00146668 11.4742 1.68545e-06 9.07012C-0.00146331 6.66604 0.952148 4.35984 2.65105 2.65886C4.34996 0.957889 6.65499 0.00146671 9.05907 1.68554e-06C11.4631 -0.00146334 13.7693 0.952149 15.4703 2.65105L17.5014 4.54934L19.5465 2.6448C20.8159 1.38176 22.431 0.523109 24.1879 0.177241C25.9449 -0.168627 27.7649 0.0137973 29.4183 0.701484C31.0716 1.38917 32.4842 2.55129 33.4776 4.04113C34.471 5.53097 35.0008 7.28173 35 9.0724Z" fill="#FF5959"/>
</svg>
