<svg width="35" height="30" viewBox="0 0 35 30" fill="none" xmlns="http://www.w3.org/2000/svg">
<path d="M32.3903 2.6175C30.7209 0.951559 28.4596 0.0148704 26.1012 0.0124858C23.7428 0.0101012 21.4795 0.942215 19.8068 2.60478L17.5039 4.74867L15.2009 2.60478C13.5295 0.935477 11.2635 -0.00148955 8.90121 1.77754e-06C6.53897 0.00149311 4.27408 0.94132 2.60478 2.61273C0.935476 4.28414 -0.00148952 6.55022 1.77746e-06 8.91246C0.00149307 11.2747 0.941319 13.5396 2.61273 15.2089L16.8248 29.6277C16.9135 29.7176 17.0193 29.789 17.1359 29.8377C17.2524 29.8865 17.3775 29.9116 17.5039 29.9116C17.6302 29.9116 17.7553 29.8865 17.8719 29.8377C17.9885 29.789 18.0942 29.7176 18.183 29.6277L32.3903 15.2153C33.2176 14.3882 33.874 13.4062 34.3217 12.3254C34.7695 11.2447 35 10.0862 35 8.91638C35 7.74651 34.7695 6.5881 34.3217 5.50733C33.874 4.42655 33.2176 3.44458 32.3903 2.6175ZM31.0352 13.8698L17.5039 27.5983L3.96777 13.865C2.66305 12.5511 1.93223 10.7737 1.93539 8.92212C1.93855 7.0705 2.67542 5.2956 3.98461 3.9862C5.2938 2.6768 7.06858 1.93964 8.9202 1.93619C10.7718 1.93273 12.5493 2.66327 13.8634 3.96777C13.8711 3.97602 13.8796 3.98348 13.8888 3.99004L16.8534 6.75102C17.03 6.91558 17.2625 7.00708 17.5039 7.00708C17.7453 7.00708 17.9777 6.91558 18.1544 6.75102L21.1189 3.98845C21.1281 3.98189 21.1366 3.97443 21.1444 3.96618C21.7937 3.31297 22.5656 2.79438 23.4158 2.44014C24.266 2.08589 25.1778 1.90298 26.0989 1.90187C27.0199 1.90076 27.9321 2.08149 28.7832 2.43369C29.6342 2.78589 30.4074 3.30263 31.0583 3.95428C31.7092 4.60593 32.2251 5.37966 32.5763 6.23111C32.9275 7.08255 33.1072 7.99496 33.1051 8.91601C33.103 9.83706 32.919 10.7486 32.5638 11.5984C32.2086 12.4482 31.6892 13.2196 31.0352 13.8682V13.8698Z" fill="white"/>
</svg>
