<svg width="216" height="218" viewBox="0 0 216 218" fill="none" xmlns="http://www.w3.org/2000/svg">
<g clip-path="url(#clip0_1568_1589)">
<path d="M216 163.5C216 169.924 213.471 176.085 208.971 180.628C204.47 185.17 198.365 187.722 192 187.722H24C17.6348 187.722 11.5303 185.17 7.02944 180.628C2.52856 176.085 0 169.924 0 163.5V54.5001C0 48.0759 2.52856 41.9149 7.02944 37.3724C11.5303 32.8298 17.6348 30.2778 24 30.2778H192C198.365 30.2778 204.47 32.8298 208.971 37.3724C213.471 41.9149 216 48.0759 216 54.5001V163.5Z" fill="#CCD6DD"/>
<path d="M71.6999 106.796L3.82191 175.302C3.65991 175.472 3.59991 175.684 3.46191 175.853C5.50191 179.305 8.34591 182.169 11.7659 184.234C11.9399 184.095 12.1439 184.034 12.3059 183.871L80.1899 115.358C81.315 114.222 81.9467 112.681 81.9461 111.075C81.9456 109.469 81.3128 107.928 80.1869 106.793C79.0611 105.657 77.5344 105.02 75.9428 105.02C74.3512 105.021 72.825 105.659 71.6999 106.796ZM212.538 175.853C212.412 175.684 212.34 175.472 212.178 175.308L144.306 106.796C143.749 106.233 143.087 105.787 142.359 105.482C141.631 105.177 140.851 105.021 140.063 105.02C139.275 105.02 138.495 105.176 137.766 105.48C137.038 105.785 136.376 106.231 135.819 106.793C135.261 107.355 134.819 108.023 134.517 108.757C134.215 109.492 134.06 110.28 134.06 111.075C134.059 111.87 134.214 112.658 134.516 113.393C134.817 114.128 135.259 114.796 135.816 115.358L203.694 183.871C203.85 184.028 204.066 184.095 204.234 184.234C207.65 182.182 210.505 179.301 212.538 175.853Z" fill="#99AAB5"/>
<path d="M192 30.2778H24C17.6348 30.2778 11.5303 32.8298 7.02944 37.3724C2.52856 41.9149 0 48.0759 0 54.5001L0 60.7373L87.168 148.519C92.6563 154.025 100.081 157.117 107.82 157.117C115.559 157.117 122.984 154.025 128.472 148.519L216 60.6101V54.5001C216 48.0759 213.471 41.9149 208.971 37.3724C204.47 32.8298 198.365 30.2778 192 30.2778Z" fill="#99AAB5"/>
<path d="M192 30.2778H24.0002C19.4836 30.288 15.0619 31.5868 11.2453 34.0244C7.42872 36.462 4.3728 39.939 2.43018 44.0542L91.0262 133.477C93.2548 135.726 95.9006 137.51 98.8125 138.728C101.724 139.945 104.845 140.572 107.997 140.572C111.149 140.572 114.27 139.945 117.182 138.728C120.094 137.51 122.74 135.726 124.968 133.477L213.57 44.0542C211.628 39.9385 208.572 36.4611 204.756 34.0234C200.939 31.5858 196.517 30.2873 192 30.2778Z" fill="#E1E8ED"/>
<path d="M167.348 182.248L158.172 172.874C157.39 172.075 156.394 171.675 155.185 171.675C153.975 171.675 152.98 172.075 152.197 172.874C151.415 173.673 151.023 174.691 151.023 175.926C151.023 177.161 151.415 178.179 152.197 178.978L164.36 191.404C165.214 192.276 166.21 192.712 167.348 192.712C168.486 192.712 169.481 192.276 170.335 191.404L194.448 166.77C195.23 165.971 195.621 164.953 195.621 163.718C195.621 162.483 195.23 161.465 194.448 160.666C193.665 159.867 192.67 159.467 191.46 159.467C190.251 159.467 189.255 159.867 188.473 160.666L167.348 182.248ZM173.322 218C167.419 218 161.871 216.855 156.678 214.564C151.486 212.274 146.969 209.168 143.128 205.247C139.287 201.323 136.247 196.709 134.008 191.404C131.769 186.099 130.648 180.431 130.645 174.4C130.645 168.369 131.766 162.701 134.008 157.396C136.25 152.091 139.29 147.477 143.128 143.553C146.969 139.629 151.486 136.523 156.678 134.236C161.871 131.948 167.419 130.803 173.322 130.8C179.226 130.8 184.774 131.945 189.967 134.236C195.159 136.526 199.676 139.632 203.517 143.553C207.358 147.477 210.399 152.091 212.641 157.396C214.883 162.701 216.003 168.369 216 174.4C216 180.431 214.879 186.099 212.637 191.404C210.395 196.709 207.355 201.323 203.517 205.247C199.676 209.171 195.159 212.278 189.967 214.569C184.774 216.859 179.226 218.003 173.322 218Z" fill="#D0FDD0" fill-opacity="0.8"/>
<path d="M167.348 182.248L158.172 172.874C157.39 172.075 156.394 171.675 155.185 171.675C153.975 171.675 152.98 172.075 152.197 172.874C151.415 173.673 151.023 174.691 151.023 175.926C151.023 177.161 151.415 178.179 152.197 178.978L164.36 191.404C165.214 192.276 166.21 192.712 167.348 192.712C168.486 192.712 169.481 192.276 170.335 191.404L194.448 166.77C195.23 165.971 195.621 164.953 195.621 163.718C195.621 162.483 195.23 161.465 194.448 160.666C193.665 159.867 192.67 159.467 191.46 159.467C190.251 159.467 189.255 159.867 188.473 160.666L167.348 182.248Z" fill="#D0FDD0" fill-opacity="0.8"/>
<path d="M167.988 181.323L160.238 173.406C159.577 172.731 158.736 172.393 157.715 172.393C156.693 172.393 155.852 172.731 155.192 173.406C154.531 174.081 154.2 174.94 154.2 175.984C154.2 177.027 154.531 177.886 155.192 178.561L165.464 189.056C166.185 189.793 167.026 190.161 167.988 190.161C168.949 190.161 169.79 189.793 170.511 189.056L190.876 168.25C191.537 167.575 191.867 166.716 191.867 165.673C191.867 164.629 191.537 163.77 190.876 163.095C190.215 162.42 189.374 162.082 188.353 162.082C187.332 162.082 186.491 162.42 185.83 163.095L167.988 181.323ZM173.034 211.519C168.048 211.519 163.362 210.552 158.976 208.617C154.591 206.683 150.776 204.06 147.532 200.748C144.288 197.434 141.72 193.536 139.829 189.056C137.938 184.576 136.991 179.789 136.989 174.695C136.989 169.601 137.936 164.813 139.829 160.333C141.723 155.853 144.29 151.956 147.532 148.641C150.776 145.327 154.591 142.704 158.976 140.772C163.362 138.84 168.048 137.873 173.034 137.87C178.02 137.87 182.706 138.838 187.091 140.772C191.477 142.707 195.292 145.33 198.536 148.641C201.78 151.956 204.349 155.853 206.242 160.333C208.136 164.813 209.081 169.601 209.079 174.695C209.079 179.789 208.132 184.576 206.239 189.056C204.345 193.536 201.777 197.434 198.536 200.748C195.292 204.062 191.477 206.686 187.091 208.621C182.706 210.555 178.02 211.521 173.034 211.519Z" fill="#56EA4C"/>
<path d="M167.988 181.323L160.238 173.406C159.577 172.731 158.736 172.393 157.715 172.393C156.693 172.393 155.852 172.731 155.192 173.406C154.531 174.081 154.2 174.94 154.2 175.984C154.2 177.027 154.531 177.886 155.192 178.561L165.464 189.056C166.185 189.793 167.026 190.161 167.988 190.161C168.949 190.161 169.79 189.793 170.511 189.056L190.876 168.25C191.537 167.575 191.867 166.716 191.867 165.673C191.867 164.629 191.537 163.77 190.876 163.095C190.215 162.42 189.374 162.082 188.353 162.082C187.332 162.082 186.491 162.42 185.83 163.095L167.988 181.323Z" fill="white"/>
</g>
<defs>
<clipPath id="clip0_1568_1589">
<rect width="216" height="218" fill="white"/>
</clipPath>
</defs>
</svg>
