<svg width="18" height="18" viewBox="0 0 18 18" fill="none" xmlns="http://www.w3.org/2000/svg">
<g clip-path="url(#clip0_22_3145)">
<path d="M17.4046 7.32127H16.7142V7.2857H8.9999V10.7143H13.844C13.1373 12.7101 11.2383 14.1428 8.9999 14.1428C6.15975 14.1428 3.85704 11.8401 3.85704 8.99999C3.85704 6.15984 6.15975 3.85713 8.9999 3.85713C10.3109 3.85713 11.5036 4.3517 12.4118 5.15956L14.8362 2.73513C13.3053 1.30842 11.2576 0.428558 8.9999 0.428558C4.26632 0.428558 0.428467 4.26642 0.428467 8.99999C0.428467 13.7336 4.26632 17.5714 8.9999 17.5714C13.7335 17.5714 17.5713 13.7336 17.5713 8.99999C17.5713 8.42527 17.5122 7.86427 17.4046 7.32127Z" fill="#FFC107"/>
<path d="M1.41699 5.01042L4.23313 7.0757C4.99513 5.18913 6.84056 3.85713 9.00013 3.85713C10.3111 3.85713 11.5038 4.3517 12.412 5.15956L14.8364 2.73513C13.3056 1.30842 11.2578 0.428558 9.00013 0.428558C5.70785 0.428558 2.85271 2.28727 1.41699 5.01042Z" fill="#FF3D00"/>
<path d="M8.99986 17.5714C11.2139 17.5714 13.2256 16.7241 14.7466 15.3463L12.0937 13.1014C11.2042 13.7779 10.1173 14.1437 8.99986 14.1429C6.77043 14.1429 4.87743 12.7213 4.16428 10.7374L1.36914 12.891C2.78771 15.6669 5.66857 17.5714 8.99986 17.5714Z" fill="#4CAF50"/>
<path d="M17.4047 7.32129H16.7143V7.28572H9V10.7143H13.8441C13.5061 11.6642 12.8972 12.4942 12.0926 13.1019L12.0939 13.101L14.7467 15.3459C14.559 15.5164 17.5714 13.2857 17.5714 9.00001C17.5714 8.42529 17.5123 7.86429 17.4047 7.32129Z" fill="#1976D2"/>
</g>
<defs>
<clipPath id="clip0_22_3145">
<rect width="18" height="18" fill="white"/>
</clipPath>
</defs>
</svg>
