<svg width="17" height="9" viewBox="0 0 17 9" fill="none" xmlns="http://www.w3.org/2000/svg">
<path d="M0.0457401 1.16392C0.00676444 1.05105 -0.00844297 0.93174 0.00101951 0.813065C0.010482 0.694389 0.0444218 0.578763 0.100826 0.473044C0.157231 0.367324 0.234952 0.273664 0.329381 0.197614C0.423811 0.121565 0.533026 0.0646759 0.650552 0.03032C0.768077 -0.004036 0.89152 -0.0151591 1.01356 -0.00239046C1.1356 0.0103782 1.25376 0.0467788 1.36102 0.104653C1.46828 0.162528 1.56247 0.240699 1.638 0.33453C1.71353 0.428361 1.76886 0.535942 1.80071 0.650895C3.71338 6.86233 12.7871 6.86322 14.7016 0.654452C14.736 0.542478 14.7927 0.438154 14.8686 0.347437C14.9445 0.256721 15.0381 0.181388 15.144 0.125741C15.2499 0.0700934 15.3661 0.035221 15.4859 0.0231142C15.6057 0.0110074 15.7268 0.0219035 15.8423 0.0551806C15.9578 0.0884577 16.0653 0.143465 16.1589 0.217059C16.2524 0.290654 16.3301 0.381396 16.3875 0.484104C16.4449 0.586813 16.4809 0.699475 16.4934 0.815661C16.5058 0.931846 16.4946 1.04928 16.4603 1.16125C16.1267 2.27372 15.5609 3.30782 14.7979 4.1994L15.967 5.33392C16.134 5.50161 16.2264 5.72621 16.2243 5.95933C16.2222 6.19246 16.1258 6.41546 15.9558 6.58031C15.7858 6.74516 15.5558 6.83867 15.3154 6.8407C15.075 6.84273 14.8434 6.75311 14.6705 6.59114L13.4684 5.4255C12.8196 5.89986 12.103 6.27996 11.3412 6.5538L11.6685 7.74078C11.7034 7.85464 11.7145 7.97412 11.701 8.09218C11.6875 8.21024 11.6497 8.32448 11.59 8.42816C11.5302 8.53184 11.4496 8.62285 11.3529 8.69582C11.2563 8.76879 11.1455 8.82224 11.0272 8.85301C10.9089 8.88379 10.7854 8.89127 10.6641 8.875C10.5427 8.85874 10.426 8.81906 10.3207 8.75831C10.2155 8.69757 10.1238 8.61699 10.0512 8.52133C9.97859 8.42567 9.92648 8.31687 9.89795 8.20135L9.56419 6.99481C8.69588 7.11929 7.80831 7.11929 6.93999 6.99481L6.60624 8.20135C6.57771 8.31687 6.52559 8.42567 6.45298 8.52133C6.38037 8.61699 6.28872 8.69757 6.18346 8.75831C6.07819 8.81906 5.96144 8.85874 5.8401 8.875C5.71876 8.89127 5.59529 8.88379 5.47698 8.85301C5.35867 8.82224 5.24792 8.76879 5.15126 8.69582C5.05461 8.62285 4.97401 8.53184 4.91424 8.42816C4.85446 8.32448 4.81671 8.21024 4.80322 8.09218C4.78972 7.97412 4.80076 7.85464 4.83568 7.74078L5.16302 6.5538C4.40111 6.27966 3.6845 5.89926 3.03579 5.42461L1.83463 6.59114C1.66271 6.7581 1.42942 6.85199 1.18611 6.85215C0.942793 6.85232 0.709376 6.75875 0.537204 6.59203C0.365033 6.42532 0.268212 6.1991 0.26804 5.96316C0.267868 5.72722 0.364359 5.50087 0.536288 5.33392L1.70535 4.20029C0.986491 3.36806 0.412505 2.35624 0.0439064 1.16481L0.0457401 1.16392Z" fill="white"/>
</svg>
